<svg version="1" xmlns="http://www.w3.org/2000/svg" width="1066.667" height="1066.667" viewBox="0 0 800.000000 800.000000"><path d="M478 76.4c0 .3 4.4 10.6 9.9 22.8 17.6 39.8 21.8 53.6 22.8 75.4.3 7.2.3 14.7-.1 16.7l-.7 3.7-4.8-2.4c-12.5-6.4-27.7-17.9-51.8-39.2-33.1-29.4-61.7-51.8-72.2-56.8-5.6-2.6-7.9-3-17-3.4-5.8-.2-11.6 0-12.9.5-2.2.8-2 1.1 3.5 4.8 8.6 5.9 26.3 23.9 32.2 32.8 2.9 4.2 7.2 11.8 9.6 16.7 4.7 9.7 13.1 33.7 12.1 34.7-.8.9-18.7-5.9-33.7-12.7-30-13.7-54.1-30.1-74-50.7-9.1-9.3-23.9-28.1-26.2-33.1-.6-1.2-1.3-2.2-1.7-2.2-1.1 0-4.1 9.6-5 16.1-2.9 20.6 11.7 55.9 43.4 104.9 3 4.7 5.4 8.6 5.3 8.7-.2.1-9.2-1.8-20.2-4.3-56.6-12.6-82.8-16.8-118.7-18.9-5.4-.3-9.8-.1-9.8.3 0 1.8 8.8 10.8 19.3 19.8 14.8 12.7 29.7 22.9 63 43 15.5 9.5 28.1 17.6 28 18-.1.4-6.2 3.2-13.7 6.1-43.7 17-82.6 24.2-116.3 21.5-8-.7-14.8-1-15.1-.8-.2.3 4.5 2.9 10.4 5.9 23.7 11.9 47.3 21.1 91.2 35.7l26.3 8.8-4.8 3.4c-43.4 31.3-79.7 52.5-107.3 62.8-10.6 3.9-13.5 6.4-8.8 7.5 4.5 1 39.4 5.4 51.3 6.4 6.6.6 23.4 1.1 37.3 1.1 13.8 0 25.2.1 25.2.3 0 1.5-11 33-13.9 39.6-7.1 16.6-18.8 31.1-31.1 38.7-3.3 2-6 3.8-6 4 0 .9 8.1 4.3 12.8 5.3 11.2 2.3 32.6.6 52.5-4.4 5.2-1.3 9.6-1.9 10.1-1.4.5.4 1.1 7.7 1.4 16.1.4 13.3.2 16.5-1.7 23.8-2.7 10.7-6.9 19.1-13.8 27.5-3 3.7-5.2 7-4.8 7.3.4.4 5.5.7 11.3.7 13.2-.1 17.7-1.7 32.4-11.5 7-4.7 10.5-6.5 11-5.7 1.3 2 .9 20-.7 29-1.6 9.2-5.4 20.7-8.7 26.3-1.1 1.9-1.7 3.4-1.4 3.4.3 0 5.7-3.4 12.1-7.5 6.3-4.1 16.7-10.9 23.1-15.1 8.6-5.6 12-7.2 12.8-6.4 3.3 3.3-1.2 25.6-7.7 39-4.1 8.3-4.3 9-1.7 6 4.5-5.4 11.9-16.9 15.9-24.7 6.6-13.2 9.4-22.6 9.5-31.8.1-13.4-1.6-17-19.5-40.2-18.3-23.8-32.9-47-40.1-63.7-16.7-38.6-13.9-82.8 8.3-127.7 10.3-20.8 19.1-33.3 33.8-47.9 30.3-30.3 63.8-44 128.9-52.7 18.3-2.5 63.1-2.4 79.7 0 28.7 4.3 49.6 11.4 68.2 23.3l5.2 3.3-.6-4.7c-.4-3.9.4-7.5 4.6-20.6 2.8-8.6 8.7-29 13.1-45.2 8.3-30.5 9.6-38.6 6.3-39.8-.9-.4-2-.3-2.4.1-.4.4-7.7 12-16.3 25.7-8.6 13.8-15.6 24.6-15.6 24 0-.5-.9-10.8-2-22.9-2.4-26.9-4.3-41.1-7.6-57.5-2.1-10.6-3.2-13.7-7.1-20.3-2.5-4.3-4.9-7.5-5.3-7-.4.4-2 7.8-3.4 16.3-4.2 24-7.1 36.2-14.2 58.2-3.5 11.2-6.6 20.6-6.7 21-.1.5-3.8-5.8-8.1-14-4.4-8.1-12.2-22.6-17.4-32.2-17.4-32.2-31.1-51.9-47.7-68.5-9.6-9.7-23.5-20.9-23.5-19.1z"/><path d="M453.3 429.7c-1.2.2-2.6 1-3.2 1.7-.6.7-2.2 11.8-3.6 24.7-1.3 12.9-3.6 32.4-5 43.4-3.9 31.4-3.5 36.4 5.1 62.6 6 18.1 7.9 21.6 12.2 22.1 2.1.2 3.3 1.4 5.4 5.3 1.5 2.7 2.9 5.4 3.2 6 .2.6.9.5 1.7-.3 1.9-1.8 2.7-1.5 4.4 1.9 1.3 2.4 1.9 2.8 3 1.9 1-.8 1.8-.3 3.6 2.2 1.2 1.8 6.3 7.6 11.3 12.8 30.9 32.3 36.6 39.1 38.1 45.8.9 4.5 12.4 17.3 18.2 20.4 2.8 1.6 6.8 4.9 8.8 7.5 5 6.2 6.9 7.8 13.5 11.2 5.4 2.8 12.5 9.5 15 14 1.1 2.1 1.3 2.1 3.4.7 2.3-1.4 2.4-1.3 4.2 2.5 2.3 5.2 4.8 6.9 10.4 6.9 6.6 0 11.1-2.6 13.7-8 3.1-6.4 4.1-7.2 7.2-6.5 2.7.6 2.8.4 5-7 2.1-7 2.5-7.6 4.6-7.1 2 .5 2.3.1 2.9-4.1.3-2.5.6-6.1.6-8 0-2 .9-4.6 2-6 1.6-2 2-4.1 2-9.7v-7.1l2 2.5 2 2.5v-5.1c0-2.8-1.1-8.6-2.5-12.8-2.4-7.4-3.1-13.8-1.9-17 .4-1.1 1.1-1.3 3-.6 1.3.5 2.4.7 2.4.5 0-.3-1.3-5.3-3-11.2-1.6-5.8-3-13-3-15.8 0-6.4-6.4-25.8-11.5-34.9-2-3.6-4-6.6-4.4-6.6-1.3 0-3.6 3.2-7.5 10.3-8.3 15.1-22.3 17.8-32.3 6.4-3.9-4.5-5.5-9.9-5.7-19.4-.1-6.3.2-7.4 2.4-9.8 3.5-3.9 10.3-6.7 27.9-11.6 21.4-5.9 24.1-8.1 24.1-19.3 0-6.4-3.3-15.1-5.4-14.3-.6.2-3.4 1.2-6.3 2.1-4.7 1.6-13.3 6.4-36.8 20.8-10 6.1-14.2 7.8-19.2 7.8s-30.7-12.3-36.5-17.5c-2.6-2.3-11.8-8.4-20.4-13.5-23.2-13.6-30-21.6-32.5-38.2-1-6.3-.9-9.1 1-20.6 1.1-7.3 2.1-13.8 2.1-14.3 0-.9-21.2-1.1-25.7-.2z"/></svg>